Coordinates
version=1
nRows=5
nColumns=40
inDegrees=yes

Units are S.I. units (second, meters, Newtons, ...)
Angles are in degrees.

endheader
time	pelvis_tilt	pelvis_list	pelvis_rotation	pelvis_tx	pelvis_ty	pelvis_tz	hip_flexion_r	hip_adduction_r	hip_rotation_r	knee_angle_r	knee_angle_r_beta	ankle_angle_r	subtalar_angle_r	mtp_angle_r	hip_flexion_l	hip_adduction_l	hip_rotation_l	knee_angle_l	knee_angle_l_beta	ankle_angle_l	subtalar_angle_l	mtp_angle_l	lumbar_extension	lumbar_bending	lumbar_rotation	arm_flex_r	arm_add_r	arm_rot_r	elbow_flex_r	pro_sup_r	wrist_flex_r	wrist_dev_r	arm_flex_l	arm_add_l	arm_rot_l	elbow_flex_l	pro_sup_l	wrist_flex_l	wrist_dev_l
      7.56250000	     -6.69956900	     -5.24851218	      5.95006031	      0.75835177	      0.91669124	      0.46786172	     -1.34016146	      2.78650033	    -17.86503255	     16.35973286	     16.35973286	     18.22375872	      5.77803307	     -4.58579917	     30.69739056	     -3.97488144	      2.35110746	     25.31130551	     25.31130551	      4.44094772	    -15.39298428	      5.88573480	     -7.35345584	      4.24061965	      4.73040929	     33.89421869	    -14.65903758	     -1.27607894	     92.81085879	     44.95693425	      0.00000000	      0.00000000	     -8.08926664	     -7.53235999	     -2.50102625	     33.57536850	     45.21059654	      0.00000000	      0.00000000
      7.57600000	     -6.47947651	     -5.27775270	      5.74281398	      0.75996501	      0.91798463	      0.46465673	     -1.52923845	      2.38931313	    -17.70877964	     17.49284002	     17.49284002	     17.82121445	      5.68734177	     -4.81822082	     29.96082983	     -3.92344870	      2.36307758	     25.61068444	     25.61068444	      5.15363442	    -15.64410625	      5.84017260	     -7.64406245	      4.51324395	      4.57451735	     32.35045471	    -14.54334268	     -1.11387997	     91.71051035	     44.98116995	      0.00000000	      0.00000000	     -7.49128275	     -7.54447557	     -2.54990226	     34.04099250	     45.22815467	      0.00000000	      0.00000000
      7.58950000	     -6.69987809	     -4.94863772	      5.35275887	      0.76093163	      0.91851878	      0.46136853	     -0.58047063	      1.28489940	    -17.48766413	     19.85436089	     19.85436089	     16.83310863	      5.07029956	     -7.88260273	     29.69351903	     -3.51149113	      2.01893761	     26.00549389	     26.00549389	      6.65562886	    -15.60229223	      8.12754430	     -7.32297885	      4.24188242	      4.20325625	     32.09406946	    -13.89226457	     -1.75054004	     86.12964524	     45.18529667	      0.00000000	      0.00000000	     -7.86111593	     -7.78822718	     -3.01896140	     36.87257259	     45.32020869	      0.00000000	      0.00000000
      7.60300000	     -6.71413229	     -4.85817726	      5.00409078	      0.76215215	      0.91931511	      0.45819033	      0.22064957	      0.48642805	    -17.13891881	     22.33839825	     22.33839825	     16.19669590	      4.44901092	     -8.95982535	     29.11438977	     -3.41974197	      1.59057125	     26.13276507	     26.13276507	      7.28205305	    -15.49813857	      8.04720145	     -7.31051741	      4.30349102	      4.52598903	     30.43451946	    -14.45243400	     -1.69043132	     84.09518851	     45.24292688	      0.00000000	      0.00000000	     -7.12520521	     -7.88630594	     -3.24101786	     37.84736222	     45.36759954	      0.00000000	      0.00000000
      7.61650000	     -6.72787704	     -4.80228710	      4.67104055	      0.76316318	      0.92003940	      0.45507960	      1.13673497	     -0.20682516	    -16.49505336	     24.80484514	     24.80484514	     14.34116984	      2.80807155	    -12.92560993	     28.54444696	     -3.36417414	      1.16052481	     26.25111184	     26.25111184	      8.09126841	    -15.24973963	      8.30030151	     -7.27210410	      4.40599187	      4.00286366	     29.82717842	    -13.72692310	     -2.23939394	     79.44487372	     45.40549362	      0.00000000	      0.00000000	     -7.30791971	     -8.13259387	     -3.67707750	     40.41139651	     45.46138484	      0.00000000	      0.00000000
